<?xml version="1.0" encoding="UTF-8"?><svg id="a" xmlns="http://www.w3.org/2000/svg" width="211.96" height="41.96" viewBox="0 0 211.96 41.96"><path d="m11.02,41.32h-2.39c-2.14,0-3.81-1.53-4.14-4.14l.07-17.36v-7.92c0-4.24-.11-5.67-4.06-5.67h-.5v-2.71h11.05l-.04,37.79h0Z" style="fill:#fff;"/><path d="m58.19,41.32h-6.6V11.59l-9.38,28.02c-.43,1.35-1.68,2.25-3.17,2.25s-2.6-.86-3.1-2.28l-9.23-27.7v27.77c0,1.25-.96,2.25-2.25,2.25s-2.28-1.03-2.28-2.25V11.16c0-3.81-.18-4.88-4.56-4.88h-.32v-2.71h12.69l10.13,29.49L49.95,3.57h8.27l-.04,37.76h0Z" style="fill:#fff;"/><path d="m78.76,21.32c5.28,0,7.42-1.75,7.42-6.7s-2.46-7.34-7.67-7.34h-2.5v11.34c-.04,2.17.53,2.71,2.75,2.71m13.73-7.13c0,6.42-3.28,10.13-9.27,10.62-4.24.32-6.85-.11-7.24,2.92v13.55h-2.14c-2.6,0-4.42-2-4.42-4.53V11.59c0-4.1-.21-5.35-4.35-5.35h-.53v-2.71h16.76c6.95,0,11.2,4.14,11.2,10.66" style="fill:#fff;"/><path d="m111.99,41.96c-9.02,0-13.12-4.14-13.12-13.16V11.91c0-4.35-.21-5.7-4.42-5.7h-.5v-2.67h11.44v22.46c0,8.09,1.32,12.19,6.95,12.19,4.67,0,7.31-3.64,7.74-10.95V5.56c0-1.35,1.11-2.5,2.5-2.5s2.39,1.11,2.46,2.5v21.11c0,10.73-3.1,15.3-13.05,15.3" style="fill:#fff;"/><path d="m138.73,41.32c-2.39,0-3.92-1.43-4.42-4.14V11.98c0-4.35-.18-5.7-4.42-5.7h-.5v-2.71h11.44v32.66c0,1.11.82,1.35,2,1.35h7.99v3.74h-12.09Z" style="fill:#fff;"/><path d="m171.42,12.09c0-3.64-2.35-5.49-6.85-5.49-3.39,0-5.06,1.64-5.06,4.67,0,4.35,3.49,5.67,8.98,8.77,5.49,3.1,8.06,6.1,8.06,10.87,0,6.6-5.06,10.98-12.94,10.98-4.06,0-7.63-1.35-10.3-3.85-.64-.75-.93-1.35-.93-1.89,0-1.11.93-2.14,1.85-2.14.75,0,1.53.61,2.57,1.25,1.78,1.03,3.53,2.14,6.6,2.14,4.31,0,6.49-1.64,6.49-4.96,0-2.92-1.96-5.17-5.88-7.42-2.92-1.68-5.49-3.07-7.42-4.63-2.39-1.96-3.71-4.78-3.71-7.95,0-5.78,4.53-9.59,12.19-9.59,3.28,0,6.1,1,8.88,3.07l.07,6.28h-2.57l-.04-.11h0Z" style="fill:#fff;"/><path d="m183.83,11.2c.14.07.61.29,1.14.29.43,0,1.28-.18,1.96-1.21.53-.86.78-1.85.78-2.85,0-.82-.21-2.07-1.28-2.07-.75,0-1.5.61-1.68.71l-.93,5.13h0Zm1.25-7.1l-.25,1.14c.71-.61,1.68-1.14,2.64-1.14,1.14,0,2.35.78,2.35,2.96,0,1.28-.43,2.64-1.39,3.74-1.11,1.28-2.42,1.6-3.42,1.6-.61,0-1.03-.14-1.39-.29l-.5,2.96,1.57.29v.68h-4.67v-.68l1.03-.29.14-.21,1.6-9.34-1.28-.21v-.57l2.82-.64h.75Z" style="fill:#fff;"/><path d="m191.67,1.25v-.61l2.89-.64h.75l-1.75,9.38c-.11.57-.18.89-.18,1.21,0,.71.53.86.86.86.36,0,.57-.07,1.21-.25v.64c-.86.29-2,.61-2.71.61-1.28,0-1.43-.86-1.43-1.18,0-.29.07-.61.11-.93l1.68-8.98-1.43-.11h0Z" style="fill:#fff;"/><path d="m199.84,4.21l-.96,5.03c-.04.21-.14.82-.14,1,0,.57.32.89.86.89.43,0,1.32-.36,2.07-.82l1.14-5.92,2-.25-.96,5.21c-.11.5-.18.89-.18,1.21,0,.5.29.89.82.89.21,0,.61-.04,1.03-.21v.64c-.93.29-1.21.36-1.35.39-.36.07-.96.18-1.32.18-.82,0-1.21-.53-1.21-1.32v-.07c-.36.25-1.75,1.46-3.17,1.46-1.03,0-1.64-.53-1.64-1.68,0-.29.07-.75.11-.96l.82-4.39-1.35-.21v-.57l2.92-.57.53.07h0Z" style="fill:#fff;"/><path d="m207.33,11.34c.36.29.78.39,1.11.39.71,0,1.28-.43,1.28-1.21,0-.61-.32-.96-1.18-1.53l-.43-.29c-.68-.5-1.43-1.07-1.43-1.93,0-1.32,1.25-2.67,3.35-2.67.71,0,1.89.21,1.89,1.25,0,.86-.71,1-1.18,1.03l-.78-1.5c-.07,0-.18-.04-.32-.04-.64,0-1.21.39-1.21.93,0,.61.53.93,1.35,1.53l.53.39c.82.61,1.25,1.25,1.25,2.03,0,1.85-1.6,2.82-3.32,2.82s-2.57-1.11-2.57-1.78.5-1,1.03-1c.29,0,.64.07.89.39l-.29,1.18h0Z" style="fill:#fff;"/><path d="m183.83,11.2c.14.07.61.29,1.14.29.43,0,1.28-.18,1.96-1.21.53-.86.78-1.85.78-2.85,0-.82-.21-2.07-1.28-2.07-.75,0-1.5.61-1.68.71l-.93,5.13h0Zm1.25-7.1l-.25,1.14c.71-.61,1.68-1.14,2.64-1.14,1.14,0,2.35.78,2.35,2.96,0,1.28-.43,2.64-1.39,3.74-1.11,1.28-2.42,1.6-3.42,1.6-.61,0-1.03-.14-1.39-.29l-.5,2.96,1.57.29v.68h-4.71v-.68l1.03-.29.14-.21,1.6-9.34-1.28-.21v-.57l2.82-.64h.78Z" style="fill:#fff;"/><path d="m191.67,1.25v-.61l2.89-.64h.75l-1.75,9.38c-.11.57-.18.89-.18,1.21,0,.71.53.86.86.86.36,0,.57-.07,1.21-.25v.64c-.86.29-2,.61-2.71.61-1.28,0-1.43-.86-1.43-1.18,0-.29.07-.61.11-.93l1.68-8.98-1.43-.11h0Z" style="fill:#fff;"/><path d="m199.84,4.21l-.93,5.03c-.04.21-.14.82-.14,1,0,.57.32.89.86.89.43,0,1.32-.36,2.07-.82l1.14-5.92,2-.25-.96,5.21c-.11.5-.18.89-.18,1.21,0,.5.29.89.82.89.21,0,.61-.04,1.03-.21v.64c-.93.29-1.21.36-1.35.39-.36.07-.96.18-1.32.18-.82,0-1.21-.53-1.21-1.32v-.07c-.36.25-1.75,1.46-3.17,1.46-1.03,0-1.64-.53-1.64-1.68,0-.29.07-.75.11-.96l.82-4.39-1.35-.21v-.57l2.92-.57.5.07h0Z" style="fill:#fff;"/><path d="m207.36,11.37c.36.29.78.39,1.11.39.71,0,1.28-.43,1.28-1.21,0-.61-.32-.96-1.18-1.53l-.43-.29c-.68-.5-1.43-1.07-1.43-1.93,0-1.32,1.25-2.67,3.35-2.67.71,0,1.89.21,1.89,1.25,0,.86-.71,1-1.18,1.03l-.78-1.5c-.07,0-.18-.04-.32-.04-.64,0-1.21.39-1.21.93,0,.61.53.93,1.35,1.53l.53.39c.82.61,1.25,1.25,1.25,2.03,0,1.85-1.6,2.82-3.32,2.82s-2.57-1.11-2.57-1.78.5-1,1.03-1c.29,0,.64.07.89.39l-.29,1.18h0Z" style="fill:#fff;"/><path d="m11.05,41.32h-2.39c-2.14,0-3.81-1.53-4.14-4.14l.07-17.36v-7.92c0-4.24-.11-5.67-4.06-5.67h-.53v-2.71h11.05v37.79h0Z" style="fill:#fff;"/><path d="m58.22,41.32h-6.6V11.59l-9.38,28.02c-.43,1.35-1.68,2.25-3.17,2.25s-2.6-.86-3.1-2.28l-9.27-27.7v27.77c0,1.25-.96,2.25-2.25,2.25s-2.28-1.03-2.28-2.25V11.16c0-3.81-.18-4.88-4.56-4.88h-.32v-2.71h12.69l10.13,29.49L49.95,3.57h8.27v37.76h0Z" style="fill:#fff;"/><path d="m78.79,21.32c5.28,0,7.42-1.75,7.42-6.7s-2.46-7.34-7.67-7.34h-2.5v11.34c-.04,2.17.5,2.71,2.75,2.71m13.69-7.13c0,6.42-3.28,10.13-9.27,10.62-4.24.32-6.85-.11-7.24,2.92v13.55h-2.14c-2.6,0-4.42-2-4.42-4.53V11.59c0-4.1-.21-5.35-4.35-5.35h-.53v-2.71h16.76c6.95,0,11.2,4.14,11.2,10.66" style="fill:#fff;"/><path d="m111.99,41.96c-9.02,0-13.12-4.14-13.12-13.16V11.91c0-4.35-.21-5.7-4.42-5.7h-.5v-2.67h11.44v22.46c0,8.09,1.32,12.19,6.95,12.19,4.67,0,7.31-3.64,7.74-10.95V5.56c0-1.35,1.11-2.5,2.5-2.5s2.39,1.11,2.46,2.5v21.11c.04,10.73-3.07,15.3-13.05,15.3" style="fill:#fff;"/><path d="m138.73,41.32c-2.39,0-3.92-1.43-4.42-4.14V11.98c0-4.35-.18-5.7-4.42-5.7h-.5v-2.71h11.44v32.66c0,1.11.82,1.35,2,1.35h7.99v3.74h-12.09Z" style="fill:#fff;"/><path d="m171.46,12.09c0-3.64-2.35-5.49-6.85-5.49-3.39,0-5.06,1.64-5.06,4.67,0,4.35,3.49,5.67,8.98,8.77,5.49,3.1,8.06,6.1,8.06,10.87,0,6.6-5.06,10.98-12.94,10.98-4.06,0-7.63-1.35-10.3-3.85-.64-.75-.93-1.35-.93-1.89,0-1.11.93-2.14,1.85-2.14.75,0,1.53.61,2.57,1.25,1.78,1.03,3.53,2.14,6.6,2.14,4.31,0,6.49-1.64,6.49-4.96,0-2.92-1.96-5.17-5.88-7.42-2.92-1.68-5.49-3.07-7.42-4.63-2.39-1.96-3.71-4.78-3.71-7.95,0-5.78,4.53-9.59,12.19-9.59,3.28,0,6.1,1,8.88,3.07l.07,6.28h-2.6v-.11h0Z" style="fill:#fff;"/></svg>